<svg width="60" height="60" viewBox="0 0 60 60" fill="none" xmlns="http://www.w3.org/2000/svg">
<path d="M30 26.3174H54.2745C54.5424 27.8129 54.6763 29.2415 54.6763 30.6031C54.6763 35.4468 53.6607 39.7716 51.6295 43.5774C49.5982 47.3832 46.702 50.3576 42.9408 52.5004C39.1797 54.6433 34.8661 55.7147 30 55.7147C26.4955 55.7147 23.1585 55.0395 19.9888 53.689C16.8192 52.3386 14.0848 50.5138 11.7857 48.2147C9.4866 45.9156 7.66182 43.1812 6.31138 40.0116C4.96093 36.8419 4.28571 33.5049 4.28571 30.0004C4.28571 26.496 4.96093 23.1589 6.31138 19.9893C7.66182 16.8196 9.4866 14.0852 11.7857 11.7861C14.0848 9.48703 16.8192 7.66225 19.9888 6.3118C23.1585 4.96136 26.4955 4.28613 30 4.28613C36.6964 4.28613 42.4442 6.52944 47.2433 11.016L40.2455 17.746C37.5 15.0897 34.0848 13.7616 30 13.7616C27.1205 13.7616 24.4587 14.487 22.0145 15.9379C19.5703 17.3888 17.6339 19.3587 16.2053 21.8475C14.7768 24.3364 14.0625 27.054 14.0625 30.0004C14.0625 32.9468 14.7768 35.6645 16.2053 38.1533C17.6339 40.6422 19.5703 42.612 22.0145 44.0629C24.4587 45.5138 27.1205 46.2393 30 46.2393C31.942 46.2393 33.7277 45.9714 35.3571 45.4357C36.9866 44.9 38.3259 44.2303 39.375 43.4268C40.4241 42.6232 41.3393 41.708 42.1205 40.6812C42.9018 39.6544 43.4766 38.6835 43.8449 37.7683C44.2132 36.8531 44.4643 35.9826 44.5982 35.1567H30V26.3174Z" fill="#C1382C"/>
</svg>
