<svg width="60" height="61" viewBox="0 0 60 61" fill="none" xmlns="http://www.w3.org/2000/svg">
<path fill-rule="evenodd" clip-rule="evenodd" d="M28.595 7.97949C27.04 7.97949 25.78 9.23949 25.78 10.792L25.4425 13.1545C25.3733 13.6378 25.1795 14.0947 24.8801 14.4804C24.5808 14.866 24.1862 15.1671 23.7352 15.354C23.2842 15.5409 22.7923 15.6072 22.3079 15.5464C21.8235 15.4855 21.3633 15.2996 20.9725 15.007L19.0625 13.5745C18.8013 13.3133 18.4913 13.1062 18.1501 12.9648C17.8088 12.8235 17.4431 12.7507 17.0738 12.7507C16.7044 12.7507 16.3387 12.8235 15.9974 12.9648C15.6562 13.1062 15.3462 13.3133 15.085 13.5745L13.095 15.5645C11.995 16.6645 11.995 18.442 13.095 19.5395L14.5275 21.452C14.8201 21.8426 15.006 22.3026 15.067 22.7868C15.128 23.2711 15.0619 23.7628 14.8753 24.2138C14.6886 24.6647 14.3879 25.0593 14.0025 25.3588C13.6172 25.6583 13.1606 25.8524 12.6775 25.922L10.3125 26.262C8.76 26.262 7.5 27.5195 7.5 29.072V31.887C7.5 33.437 8.76 34.697 10.3125 34.697L12.675 35.037C13.1583 35.1062 13.6152 35.3 14.0009 35.5994C14.3865 35.8987 14.6876 36.2933 14.8745 36.7443C15.0614 37.1953 15.1277 37.6872 15.0669 38.1716C15.006 38.656 14.8201 39.1162 14.5275 39.507L13.095 41.417C11.995 42.517 11.995 44.297 13.095 45.3945L15.085 47.3845C16.185 48.4845 17.9625 48.4845 19.06 47.3845L20.9725 45.952C21.3631 45.6594 21.8231 45.4735 22.3073 45.4125C22.7916 45.3515 23.2833 45.4176 23.7343 45.6042C24.1852 45.7909 24.5798 46.0916 24.8793 46.477C25.1788 46.8623 25.3729 47.3189 25.4425 47.802L25.7825 50.167C25.7825 51.7195 27.04 52.9795 28.5925 52.9795H31.4075C32.9575 52.9795 34.2175 51.7195 34.2175 50.167L34.5575 47.8045C34.6267 47.3212 34.8205 46.8643 35.1199 46.4786C35.4192 46.093 35.8138 45.7919 36.2648 45.605C36.7158 45.4181 37.2077 45.3518 37.6921 45.4126C38.1765 45.4735 38.6367 45.6593 39.0275 45.952L40.9375 47.3845C42.0375 48.4845 43.8175 48.4845 44.915 47.3845L46.905 45.3945C48.0025 44.2945 48.0025 42.517 46.905 41.4195L45.4725 39.507C45.1799 39.1164 44.994 38.6564 44.933 38.1722C44.872 37.6879 44.9381 37.1962 45.1247 36.7452C45.3114 36.2943 45.6121 35.8997 45.9975 35.6002C46.3828 35.3006 46.8394 35.1066 47.3225 35.037L49.6875 34.697C51.24 34.697 52.5 33.4395 52.5 31.887V29.072C52.5 27.522 51.24 26.262 49.6875 26.262L47.325 25.922C46.8417 25.8528 46.3848 25.659 45.9991 25.3596C45.6135 25.0603 45.3124 24.6657 45.1255 24.2147C44.9386 23.7637 44.8723 23.2718 44.9331 22.7874C44.994 22.303 45.1799 21.8428 45.4725 21.452L46.905 19.542C48.0025 18.442 48.0025 16.662 46.905 15.5645L44.915 13.5745C44.3877 13.0478 43.6728 12.752 42.9275 12.752C42.1822 12.752 41.4673 13.0478 40.94 13.5745L39.0275 15.007C38.6369 15.2996 38.1769 15.4855 37.6927 15.5465C37.2084 15.6075 36.7167 15.5414 36.2657 15.3548C35.8148 15.1681 35.4202 14.8674 35.1207 14.482C34.8212 14.0967 34.6271 13.6401 34.5575 13.157L34.2175 10.792C34.2175 9.23949 32.96 7.97949 31.4075 7.97949H28.595ZM30 36.1045C31.4918 36.1045 32.9226 35.5119 33.9775 34.457C35.0324 33.4021 35.625 31.9713 35.625 30.4795C35.625 28.9876 35.0324 27.5569 33.9775 26.502C32.9226 25.4471 31.4918 24.8545 30 24.8545C28.5082 24.8545 27.0774 25.4471 26.0225 26.502C24.9676 27.5569 24.375 28.9876 24.375 30.4795C24.375 31.9713 24.9676 33.4021 26.0225 34.457C27.0774 35.5119 28.5082 36.1045 30 36.1045Z" fill="white"/>
</svg>
