<svg width="50" height="45" viewBox="0 0 50 45" fill="none" xmlns="http://www.w3.org/2000/svg">
<path d="M47.9167 6.07704H38.8889V2.60482C38.8889 1.4503 37.9601 0.521484 36.8056 0.521484H13.1944C12.0399 0.521484 11.1111 1.4503 11.1111 2.60482V6.07704H2.08333C0.928819 6.07704 0 7.00586 0 8.16037V13.0215C0 16.1204 1.95312 19.3062 5.37326 21.7628C8.10764 23.7333 11.4323 24.9833 14.9219 25.3826C17.6476 29.9052 20.8333 31.7715 20.8333 31.7715V38.0215H16.6667C13.6024 38.0215 11.1111 39.8184 11.1111 42.8826V43.9243C11.1111 44.4972 11.5799 44.9659 12.1528 44.9659H37.8472C38.4201 44.9659 38.8889 44.4972 38.8889 43.9243V42.8826C38.8889 39.8184 36.3976 38.0215 33.3333 38.0215H29.1667V31.7715C29.1667 31.7715 32.3524 29.9052 35.0781 25.3826C38.5764 24.9833 41.901 23.7333 44.6267 21.7628C48.0382 19.3062 50 16.1204 50 13.0215V8.16037C50 7.00586 49.0712 6.07704 47.9167 6.07704ZM8.61979 17.2576C6.50174 15.7298 5.55556 14.0284 5.55556 13.0215V11.6326H11.1285C11.2153 14.4625 11.6319 16.9451 12.2396 19.1152C10.9288 18.6638 9.70486 18.0388 8.61979 17.2576ZM44.4444 13.0215C44.4444 14.4191 42.908 16.1552 41.3802 17.2576C40.2951 18.0388 39.0625 18.6638 37.7517 19.1152C38.3594 16.9451 38.776 14.4625 38.8628 11.6326H44.4444V13.0215Z" fill="white"/>
</svg>
