<svg width="51" height="50" viewBox="0 0 51 50" fill="none" xmlns="http://www.w3.org/2000/svg">
<path d="M27.9635 24.2773H49.6412C49.8804 25.5859 50 26.8359 50 28.0273C50 32.2656 49.093 36.0498 47.2791 39.3799C45.4651 42.71 42.8787 45.3125 39.5199 47.1875C36.1611 49.0625 32.309 50 27.9635 50C24.8339 50 21.8538 49.4092 19.0233 48.2275C16.1927 47.0459 13.7508 45.4492 11.6977 43.4375C9.64452 41.4258 8.01495 39.0332 6.80897 36.2598C5.60299 33.4863 5 30.5664 5 27.5C5 24.4336 5.60299 21.5137 6.80897 18.7402C8.01495 15.9668 9.64452 13.5742 11.6977 11.5625C13.7508 9.55078 16.1927 7.9541 19.0233 6.77246C21.8538 5.59082 24.8339 5 27.9635 5C33.9435 5 39.0764 6.96289 43.3621 10.8887L37.113 16.7773C34.6611 14.4531 31.6113 13.291 27.9635 13.291C25.392 13.291 23.0149 13.9258 20.8322 15.1953C18.6495 16.4648 16.9203 18.1885 15.6445 20.3662C14.3688 22.5439 13.7309 24.9219 13.7309 27.5C13.7309 30.0781 14.3688 32.4561 15.6445 34.6338C16.9203 36.8115 18.6495 38.5352 20.8322 39.8047C23.0149 41.0742 25.392 41.709 27.9635 41.709C29.6977 41.709 31.2924 41.4746 32.7475 41.0059C34.2027 40.5371 35.3987 39.9512 36.3355 39.248C37.2724 38.5449 38.0897 37.7441 38.7874 36.8457C39.4851 35.9473 39.9983 35.0977 40.3272 34.2969C40.6561 33.4961 40.8804 32.7344 41 32.0117H27.9635V24.2773Z" fill="#A63026"/>
</svg>
