<svg width="46" height="46" viewBox="0 0 46 46" fill="none" xmlns="http://www.w3.org/2000/svg">
<path d="M23.0593 19.8486H44.7371C44.9763 21.1572 45.0959 22.4072 45.0959 23.5986C45.0959 27.8369 44.1889 31.6211 42.375 34.9512C40.561 38.2812 37.9746 40.8838 34.6158 42.7588C31.257 44.6338 27.4049 45.5713 23.0593 45.5713C19.9298 45.5713 16.9497 44.9805 14.1191 43.7988C11.2886 42.6172 8.84672 41.0205 6.79356 39.0088C4.7404 36.9971 3.11084 34.6045 1.90486 31.8311C0.698876 29.0576 0.0958862 26.1377 0.0958862 23.0713C0.0958862 20.0049 0.698876 17.085 1.90486 14.3115C3.11084 11.5381 4.7404 9.14551 6.79356 7.13379C8.84672 5.12207 11.2886 3.52539 14.1191 2.34375C16.9497 1.16211 19.9298 0.571289 23.0593 0.571289C29.0394 0.571289 34.1723 2.53418 38.458 6.45996L32.2088 12.3486C29.757 10.0244 26.7072 8.8623 23.0593 8.8623C20.4879 8.8623 18.1108 9.49707 15.9281 10.7666C13.7454 12.0361 12.0162 13.7598 10.7404 15.9375C9.46466 18.1152 8.82678 20.4932 8.82678 23.0713C8.82678 25.6494 9.46466 28.0273 10.7404 30.2051C12.0162 32.3828 13.7454 34.1064 15.9281 35.376C18.1108 36.6455 20.4879 37.2803 23.0593 37.2803C24.7936 37.2803 26.3882 37.0459 27.8434 36.5771C29.2985 36.1084 30.4946 35.5225 31.4314 34.8193C32.3683 34.1162 33.1856 33.3154 33.8833 32.417C34.5809 31.5186 35.0942 30.6689 35.4231 29.8682C35.752 29.0674 35.9763 28.3057 36.0959 27.583H23.0593V19.8486Z" fill="#1C7C7D"/>
</svg>
