<svg width="50" height="51" viewBox="0 0 50 51" fill="none" xmlns="http://www.w3.org/2000/svg">
<path d="M18.6584 11.2984C19.6795 11.1073 20.7033 11.6171 21.1488 12.5386C21.2597 12.7058 21.3485 12.8862 21.413 13.0754C21.696 17.4438 21.9978 21.7382 22.2808 26.0326C22.2744 26.479 22.3445 26.9233 22.4884 27.3468C22.8269 28.1802 23.6695 28.7089 24.5826 28.661L38.4496 27.7726L38.5439 27.8096L38.797 27.8278C39.2983 27.8919 39.7656 28.1208 40.1205 28.4808C40.5345 28.9009 40.7614 29.4651 40.7516 30.0493C40.2049 38.012 34.367 44.6651 26.4224 46.3791C18.4778 48.0932 10.3337 44.4566 6.43284 37.4534C5.28583 35.4364 4.56101 33.2149 4.30091 30.9193C4.20002 30.2391 4.15586 29.5519 4.16884 28.8647C4.19513 20.3975 10.2235 13.0892 18.6584 11.2984ZM26.9032 5.13453C36.4257 5.41959 44.3841 12.3324 45.8264 21.5716C45.8356 21.6268 45.8356 21.6831 45.8264 21.7382L45.8239 21.999C45.7925 22.3438 45.651 22.6727 45.4159 22.9367C45.122 23.2667 44.7062 23.4682 44.2605 23.4967L28.2616 24.5518L27.998 24.557C27.5613 24.5357 27.1425 24.3659 26.8163 24.0722C26.4249 23.7199 26.2029 23.2219 26.2051 22.7007L25.1297 6.98556V6.72641C25.1493 6.28443 25.3472 5.86824 25.6799 5.56961C26.0126 5.27098 26.4527 5.11445 26.9032 5.13453Z" fill="white"/>
</svg>
