<svg width="50" height="51" viewBox="0 0 50 51" fill="none" xmlns="http://www.w3.org/2000/svg">
<path fill-rule="evenodd" clip-rule="evenodd" d="M43.8879 24.7219C42.1239 14.8699 38.1799 11.9639 36.0819 11.9639C32.8079 11.9639 31.9679 14.3979 24.9999 14.4799C18.0319 14.3979 17.1919 11.9639 13.9179 11.9639C11.8199 11.9639 7.87387 14.8699 6.10987 24.7219C5.10387 30.3459 4.01187 38.7419 6.61387 39.7499C9.85187 41.0039 10.9499 37.8679 14.5059 35.2179C18.1159 32.5319 19.8479 31.8999 24.9999 31.8999C30.1519 31.8999 31.8839 32.5319 35.4939 35.2179C39.0499 37.8659 40.1479 41.0039 43.3859 39.7499C45.9879 38.7419 44.8959 30.3479 43.8879 24.7219ZM16.9999 25.9999C15.939 25.9999 14.9216 25.5784 14.1714 24.8283C13.4213 24.0781 12.9999 23.0607 12.9999 21.9999C12.9999 20.939 13.4213 19.9216 14.1714 19.1714C14.9216 18.4213 15.939 17.9999 16.9999 17.9999C18.0607 17.9999 19.0781 18.4213 19.8283 19.1714C20.5784 19.9216 20.9999 20.939 20.9999 21.9999C20.9999 23.0607 20.5784 24.0781 19.8283 24.8283C19.0781 25.5784 18.0607 25.9999 16.9999 25.9999ZM30.9999 25.9999C30.4694 25.9999 29.9607 25.7892 29.5857 25.4141C29.2106 25.039 28.9999 24.5303 28.9999 23.9999C28.9999 23.4694 29.2106 22.9607 29.5857 22.5857C29.9607 22.2106 30.4694 21.9999 30.9999 21.9999C31.5303 21.9999 32.039 22.2106 32.4141 22.5857C32.7892 22.9607 32.9999 23.4694 32.9999 23.9999C32.9999 24.5303 32.7892 25.039 32.4141 25.4141C32.039 25.7892 31.5303 25.9999 30.9999 25.9999ZM34.9999 21.9999C34.4694 21.9999 33.9607 21.7892 33.5857 21.4141C33.2106 21.039 32.9999 20.5303 32.9999 19.9999C32.9999 19.4694 33.2106 18.9607 33.5857 18.5857C33.9607 18.2106 34.4694 17.9999 34.9999 17.9999C35.5303 17.9999 36.039 18.2106 36.4141 18.5857C36.7892 18.9607 36.9999 19.4694 36.9999 19.9999C36.9999 20.5303 36.7892 21.039 36.4141 21.4141C36.039 21.7892 35.5303 21.9999 34.9999 21.9999Z" fill="white"/>
</svg>
