<svg width="50" height="51" viewBox="0 0 50 51" fill="none" xmlns="http://www.w3.org/2000/svg">
<path d="M29.3345 17.1146L33.7357 23.4999C34.3358 24.3707 35.9362 25.2414 37.2699 25.3865L45.2387 26.354C50.34 26.9829 51.5403 29.6434 47.8727 32.304L41.6711 36.8028C40.6375 37.5526 40.0373 39.028 40.3707 40.0922L42.1379 45.6794C43.5382 50.0815 40.3041 51.7988 34.936 49.501L27.4674 46.2841C26.1003 45.7036 23.8998 45.7036 22.5327 46.2841L15.064 49.501C9.6959 51.7988 6.46168 50.0815 7.86205 45.6794L9.62928 40.0922C9.9627 39.0522 9.36251 37.5768 8.32891 36.8028L2.12731 32.304C-1.54031 29.6434 -0.340066 26.9587 4.76127 26.354L12.7301 25.3865C14.0637 25.2172 15.6642 24.3707 16.2643 23.4999L20.6656 17.1146C23.0329 13.6558 26.9672 13.6558 29.3345 17.1146Z" fill="white"/>
<path opacity="0.4" d="M4.99492 21.0805C3.62789 21.0805 2.49426 20.2581 2.49426 19.2664V2.33551C2.49426 1.34384 3.62789 0.521484 4.99492 0.521484C6.36194 0.521484 7.49557 1.34384 7.49557 2.33551V19.2664C7.49557 20.2581 6.36194 21.0805 4.99492 21.0805Z" fill="white"/>
<path opacity="0.4" d="M45.0053 21.0805C43.6383 21.0805 42.5046 20.2581 42.5046 19.2664V2.33551C42.5046 1.34384 43.6383 0.521484 45.0053 0.521484C46.3723 0.521484 47.5059 1.34384 47.5059 2.33551V19.2664C47.5059 20.2581 46.3723 21.0805 45.0053 21.0805Z" fill="white"/>
<path opacity="0.4" d="M25.0002 8.98694C23.6331 8.98694 22.4995 8.16458 22.4995 7.17292V2.33551C22.4995 1.34384 23.6331 0.521484 25.0002 0.521484C26.3672 0.521484 27.5008 1.34384 27.5008 2.33551V7.17292C27.5008 8.16458 26.3672 8.98694 25.0002 8.98694Z" fill="white"/>
</svg>
